<?xml version="1.0" encoding="UTF-8" standalone="no"?><svg xmlns="http://www.w3.org/2000/svg" xmlns:xlink="http://www.w3.org/1999/xlink" contentScriptType="application/ecmascript" contentStyleType="text/css" height="575px" preserveAspectRatio="none" style="width:688px;height:575px;" version="1.1" viewBox="0 0 688 575" width="688px" zoomAndPan="magnify"><defs/><g><text fill="#000000" font-family="sans-serif" font-size="18" lengthAdjust="spacingAndGlyphs" textLength="340" x="169.5" y="44.2637">Diagrama de Secuencia: Lector Biometrico</text><rect fill="#FFFFFF" height="377.2188" style="stroke: #A80036; stroke-width: 1.0;" width="10" x="167" y="168.1797"/><rect fill="#FFFFFF" height="30.3516" style="stroke: #A80036; stroke-width: 1.0;" width="10" x="293" y="198.5313"/><rect fill="#FFFFFF" height="30.3516" style="stroke: #A80036; stroke-width: 1.0;" width="10" x="293" y="319.9375"/><rect fill="#FFFFFF" height="30.3516" style="stroke: #A80036; stroke-width: 1.0;" width="10" x="293" y="484.6953"/><rect fill="#FFFFFF" height="134.4063" style="stroke: #A80036; stroke-width: 1.0;" width="10" x="417" y="350.2891"/><rect fill="#FFFFFF" height="73.7031" style="stroke: #A80036; stroke-width: 1.0;" width="10" x="543" y="380.6406"/><line style="stroke: #A80036; stroke-width: 1.0; stroke-dasharray: 5.0,5.0;" x1="46" x2="46" y1="135.8281" y2="563.3984"/><line style="stroke: #A80036; stroke-width: 1.0; stroke-dasharray: 5.0,5.0;" x1="172" x2="172" y1="135.8281" y2="563.3984"/><line style="stroke: #A80036; stroke-width: 1.0; stroke-dasharray: 5.0,5.0;" x1="297.5" x2="297.5" y1="135.8281" y2="563.3984"/><line style="stroke: #A80036; stroke-width: 1.0; stroke-dasharray: 5.0,5.0;" x1="421.5" x2="421.5" y1="135.8281" y2="563.3984"/><line style="stroke: #A80036; stroke-width: 1.0; stroke-dasharray: 5.0,5.0;" x1="548" x2="548" y1="135.8281" y2="563.3984"/><text fill="#000000" font-family="sans-serif" font-size="14" lengthAdjust="spacingAndGlyphs" textLength="70" x="8" y="132.752">Trabajador</text><ellipse cx="46" cy="65.2188" fill="#FEFECE" rx="8" ry="8" style="stroke: #A80036; stroke-width: 2.0;"/><path d="M46,73.2188 L46,100.2188 M33,81.2188 L59,81.2188 M46,100.2188 L33,115.2188 M46,100.2188 L59,115.2188 " fill="none" style="stroke: #A80036; stroke-width: 2.0;"/><text fill="#000000" font-family="sans-serif" font-size="14" lengthAdjust="spacingAndGlyphs" textLength="106" x="116" y="132.752">LectorBiometrico</text><path d="M151.5,90.2188 L151.5,114.2188 M151.5,102.2188 L168.5,102.2188 " fill="none" style="stroke: #A80036; stroke-width: 2.0;"/><ellipse cx="180.5" cy="102.2188" fill="#FEFECE" rx="12" ry="12" style="stroke: #A80036; stroke-width: 2.0;"/><text fill="#000000" font-family="sans-serif" font-size="14" lengthAdjust="spacingAndGlyphs" textLength="85" x="252.5" y="132.752">ControlHuella</text><ellipse cx="298" cy="102.2188" fill="#FEFECE" rx="12" ry="12" style="stroke: #A80036; stroke-width: 2.0;"/><polygon fill="#A80036" points="294,90.2188,300,85.2188,298,90.2188,300,95.2188,294,90.2188" style="stroke: #A80036; stroke-width: 1.0;"/><text fill="#000000" font-family="sans-serif" font-size="14" lengthAdjust="spacingAndGlyphs" textLength="107" x="365.5" y="132.752">DatosTrabajador</text><ellipse cx="422" cy="102.2188" fill="#FEFECE" rx="12" ry="12" style="stroke: #A80036; stroke-width: 2.0;"/><line style="stroke: #A80036; stroke-width: 2.0;" x1="410" x2="434" y1="116.2188" y2="116.2188"/><text fill="#000000" font-family="sans-serif" font-size="14" lengthAdjust="spacingAndGlyphs" textLength="19" x="535.5" y="132.752">BD</text><path d="M530,82.2188 C530,72.2188 548,72.2188 548,72.2188 C548,72.2188 566,72.2188 566,82.2188 L566,108.2188 C566,118.2188 548,118.2188 548,118.2188 C548,118.2188 530,118.2188 530,108.2188 L530,82.2188 " fill="#FEFECE" style="stroke: #000000; stroke-width: 1.5;"/><path d="M530,82.2188 C530,92.2188 548,92.2188 548,92.2188 C548,92.2188 566,92.2188 566,82.2188 " fill="none" style="stroke: #000000; stroke-width: 1.5;"/><rect fill="#FFFFFF" height="377.2188" style="stroke: #A80036; stroke-width: 1.0;" width="10" x="167" y="168.1797"/><rect fill="#FFFFFF" height="30.3516" style="stroke: #A80036; stroke-width: 1.0;" width="10" x="293" y="198.5313"/><rect fill="#FFFFFF" height="30.3516" style="stroke: #A80036; stroke-width: 1.0;" width="10" x="293" y="319.9375"/><rect fill="#FFFFFF" height="30.3516" style="stroke: #A80036; stroke-width: 1.0;" width="10" x="293" y="484.6953"/><rect fill="#FFFFFF" height="134.4063" style="stroke: #A80036; stroke-width: 1.0;" width="10" x="417" y="350.2891"/><rect fill="#FFFFFF" height="73.7031" style="stroke: #A80036; stroke-width: 1.0;" width="10" x="543" y="380.6406"/><polygon fill="#A80036" points="155,164.1797,165,168.1797,155,172.1797" style="stroke: #A80036; stroke-width: 1.0;"/><line style="stroke: #A80036; stroke-width: 1.0;" x1="46" x2="161" y1="168.1797" y2="168.1797"/><text fill="#000000" font-family="sans-serif" font-size="13" lengthAdjust="spacingAndGlyphs" textLength="97" x="53" y="163.3232">consultarHuella()</text><polygon fill="#A80036" points="281,194.5313,291,198.5313,281,202.5313" style="stroke: #A80036; stroke-width: 1.0;"/><line style="stroke: #A80036; stroke-width: 1.0;" x1="177" x2="287" y1="198.5313" y2="198.5313"/><text fill="#000000" font-family="sans-serif" font-size="13" lengthAdjust="spacingAndGlyphs" textLength="97" x="184" y="193.6748">consultarHuella()</text><polygon fill="#A80036" points="188,224.8828,178,228.8828,188,232.8828" style="stroke: #A80036; stroke-width: 1.0;"/><line style="stroke: #A80036; stroke-width: 1.0; stroke-dasharray: 2.0,2.0;" x1="182" x2="297" y1="228.8828" y2="228.8828"/><text fill="#000000" font-family="sans-serif" font-size="13" lengthAdjust="spacingAndGlyphs" textLength="76" x="194" y="224.0264">huellaInvalida</text><polygon fill="#A80036" points="57,255.2344,47,259.2344,57,263.2344" style="stroke: #A80036; stroke-width: 1.0;"/><line style="stroke: #A80036; stroke-width: 1.0; stroke-dasharray: 2.0,2.0;" x1="51" x2="166" y1="259.2344" y2="259.2344"/><text fill="#000000" font-family="sans-serif" font-size="13" lengthAdjust="spacingAndGlyphs" textLength="76" x="63" y="254.3779">huellaInvalida</text><polygon fill="#A80036" points="155,285.5859,165,289.5859,155,293.5859" style="stroke: #A80036; stroke-width: 1.0;"/><line style="stroke: #A80036; stroke-width: 1.0;" x1="46" x2="161" y1="289.5859" y2="289.5859"/><text fill="#000000" font-family="sans-serif" font-size="13" lengthAdjust="spacingAndGlyphs" textLength="97" x="53" y="284.7295">consultarHuella()</text><polygon fill="#A80036" points="281,315.9375,291,319.9375,281,323.9375" style="stroke: #A80036; stroke-width: 1.0;"/><line style="stroke: #A80036; stroke-width: 1.0;" x1="177" x2="287" y1="319.9375" y2="319.9375"/><text fill="#000000" font-family="sans-serif" font-size="13" lengthAdjust="spacingAndGlyphs" textLength="97" x="184" y="315.0811">consultarHuella()</text><polygon fill="#A80036" points="405,346.2891,415,350.2891,405,354.2891" style="stroke: #A80036; stroke-width: 1.0;"/><line style="stroke: #A80036; stroke-width: 1.0;" x1="298" x2="411" y1="350.2891" y2="350.2891"/><text fill="#000000" font-family="sans-serif" font-size="13" lengthAdjust="spacingAndGlyphs" textLength="95" x="305" y="345.4326">consultaDatos(t)</text><polygon fill="#A80036" points="531,376.6406,541,380.6406,531,384.6406" style="stroke: #A80036; stroke-width: 1.0;"/><line style="stroke: #A80036; stroke-width: 1.0;" x1="427" x2="537" y1="380.6406" y2="380.6406"/><text fill="#000000" font-family="sans-serif" font-size="13" lengthAdjust="spacingAndGlyphs" textLength="95" x="434" y="375.7842">consultaDatos(t)</text><line style="stroke: #A80036; stroke-width: 1.0;" x1="553" x2="595" y1="410.9922" y2="410.9922"/><line style="stroke: #A80036; stroke-width: 1.0;" x1="595" x2="595" y1="410.9922" y2="423.9922"/><line style="stroke: #A80036; stroke-width: 1.0;" x1="554" x2="595" y1="423.9922" y2="423.9922"/><polygon fill="#A80036" points="564,419.9922,554,423.9922,564,427.9922" style="stroke: #A80036; stroke-width: 1.0;"/><text fill="#000000" font-family="sans-serif" font-size="13" lengthAdjust="spacingAndGlyphs" textLength="104" x="560" y="406.1357">actualizarMarca(t)</text><polygon fill="#A80036" points="438,450.3438,428,454.3438,438,458.3438" style="stroke: #A80036; stroke-width: 1.0;"/><line style="stroke: #A80036; stroke-width: 1.0; stroke-dasharray: 2.0,2.0;" x1="432" x2="547" y1="454.3438" y2="454.3438"/><text fill="#000000" font-family="sans-serif" font-size="13" lengthAdjust="spacingAndGlyphs" textLength="92" x="444" y="449.4873">datosTrabajador</text><polygon fill="#A80036" points="314,480.6953,304,484.6953,314,488.6953" style="stroke: #A80036; stroke-width: 1.0;"/><line style="stroke: #A80036; stroke-width: 1.0; stroke-dasharray: 2.0,2.0;" x1="308" x2="421" y1="484.6953" y2="484.6953"/><text fill="#000000" font-family="sans-serif" font-size="13" lengthAdjust="spacingAndGlyphs" textLength="92" x="320" y="479.8389">datosTrabajador</text><polygon fill="#A80036" points="188,511.0469,178,515.0469,188,519.0469" style="stroke: #A80036; stroke-width: 1.0;"/><line style="stroke: #A80036; stroke-width: 1.0; stroke-dasharray: 2.0,2.0;" x1="182" x2="297" y1="515.0469" y2="515.0469"/><text fill="#000000" font-family="sans-serif" font-size="13" lengthAdjust="spacingAndGlyphs" textLength="92" x="194" y="510.1904">datosTrabajador</text><polygon fill="#A80036" points="57,541.3984,47,545.3984,57,549.3984" style="stroke: #A80036; stroke-width: 1.0;"/><line style="stroke: #A80036; stroke-width: 1.0; stroke-dasharray: 2.0,2.0;" x1="51" x2="171" y1="545.3984" y2="545.3984"/><text fill="#000000" font-family="sans-serif" font-size="13" lengthAdjust="spacingAndGlyphs" textLength="92" x="63" y="540.542">datosTrabajador</text><text fill="#888888" font-family="sans-serif" font-size="10" lengthAdjust="spacingAndGlyphs" textLength="37" x="639" y="13.3809">INF 236</text><!--MD5=[536af447e50108fd7ccc407a161c103e]
@startuml
title Diagrama de Secuencia: Lector Biometrico
header INF 236
skinparam style strictuml

actor Trabajador as Foo1
boundary LectorBiometrico as Foo2
control ControlHuella as Foo3
entity DatosTrabajador as Foo4
database BD as Foo5

Foo1 -> Foo2 : consultarHuella()
activate Foo2 
Foo2 -> Foo3 : consultarHuella()
activate Foo3
Foo3 - -> Foo2 : huellaInvalida
deactivate Foo3
Foo2 - -> Foo1 : huellaInvalida
Foo1 -> Foo2 : consultarHuella()
Foo2 -> Foo3 : consultarHuella()
activate Foo3
Foo3 -> Foo4 : consultaDatos(t)
deactivate Foo3
activate Foo4
Foo4 -> Foo5 : consultaDatos(t)
activate Foo5
Foo5 -> Foo5 : actualizarMarca(t)
Foo5 - -> Foo4 : datosTrabajador
deactivate Foo5
Foo4 - -> Foo3 : datosTrabajador
deactivate Foo4
activate Foo3
Foo3 - -> Foo2 : datosTrabajador
deactivate Foo3
Foo2 - -> Foo1 : datosTrabajador
deactivate Foo2

@enduml

PlantUML version 1.2020.10(Sun May 17 05:35:57 CLT 2020)
(GPL source distribution)
Java Runtime: Java(TM) SE Runtime Environment
JVM: Java HotSpot(TM) 64-Bit Server VM
Java Version: 1.8.0_121-b13
Operating System: Windows 10
Default Encoding: Cp1252
Language: es
Country: CL
--></g></svg>