<?xml version="1.0" encoding="UTF-8" standalone="no"?><svg xmlns="http://www.w3.org/2000/svg" xmlns:xlink="http://www.w3.org/1999/xlink" contentScriptType="application/ecmascript" contentStyleType="text/css" height="623px" preserveAspectRatio="none" style="width:560px;height:623px;" version="1.1" viewBox="0 0 560 623" width="560px" zoomAndPan="magnify"><defs/><g><text fill="#000000" font-family="sans-serif" font-size="18" lengthAdjust="spacingAndGlyphs" textLength="254" x="148.75" y="44.2637">Diagrama de Secuencia: Cajero</text><rect fill="#FFFFFF" height="433.9219" style="stroke: #A80036; stroke-width: 1.0;" width="10" x="148" y="168.1797"/><rect fill="#FFFFFF" height="30.3516" style="stroke: #A80036; stroke-width: 1.0;" width="10" x="265" y="228.8828"/><rect fill="#FFFFFF" height="30.3516" style="stroke: #A80036; stroke-width: 1.0;" width="10" x="265" y="350.2891"/><rect fill="#FFFFFF" height="91.0547" style="stroke: #A80036; stroke-width: 1.0;" width="10" x="364" y="471.6953"/><rect fill="#FFFFFF" height="30.3516" style="stroke: #A80036; stroke-width: 1.0;" width="10" x="483" y="502.0469"/><line style="stroke: #A80036; stroke-width: 1.0; stroke-dasharray: 5.0,5.0;" x1="33" x2="33" y1="135.8281" y2="611.1016"/><line style="stroke: #A80036; stroke-width: 1.0; stroke-dasharray: 5.0,5.0;" x1="152.5" x2="152.5" y1="135.8281" y2="611.1016"/><line style="stroke: #A80036; stroke-width: 1.0; stroke-dasharray: 5.0,5.0;" x1="269.5" x2="269.5" y1="135.8281" y2="611.1016"/><line style="stroke: #A80036; stroke-width: 1.0; stroke-dasharray: 5.0,5.0;" x1="368.5" x2="368.5" y1="135.8281" y2="611.1016"/><line style="stroke: #A80036; stroke-width: 1.0; stroke-dasharray: 5.0,5.0;" x1="487.5" x2="487.5" y1="135.8281" y2="611.1016"/><text fill="#000000" font-family="sans-serif" font-size="14" lengthAdjust="spacingAndGlyphs" textLength="44" x="8" y="132.752">Cliente</text><ellipse cx="33" cy="65.2188" fill="#FEFECE" rx="8" ry="8" style="stroke: #A80036; stroke-width: 2.0;"/><path d="M33,73.2188 L33,100.2188 M20,81.2188 L46,81.2188 M33,100.2188 L20,115.2188 M33,100.2188 L46,115.2188 " fill="none" style="stroke: #A80036; stroke-width: 2.0;"/><text fill="#000000" font-family="sans-serif" font-size="14" lengthAdjust="spacingAndGlyphs" textLength="42" x="129" y="132.752">Cajero</text><path d="M132.5,90.2188 L132.5,114.2188 M132.5,102.2188 L149.5,102.2188 " fill="none" style="stroke: #A80036; stroke-width: 2.0;"/><ellipse cx="161.5" cy="102.2188" fill="#FEFECE" rx="12" ry="12" style="stroke: #A80036; stroke-width: 2.0;"/><text fill="#000000" font-family="sans-serif" font-size="14" lengthAdjust="spacingAndGlyphs" textLength="77" x="228.5" y="132.752">ControlPass</text><ellipse cx="270" cy="102.2188" fill="#FEFECE" rx="12" ry="12" style="stroke: #A80036; stroke-width: 2.0;"/><polygon fill="#A80036" points="266,90.2188,272,85.2188,270,90.2188,272,95.2188,266,90.2188" style="stroke: #A80036; stroke-width: 1.0;"/><text fill="#000000" font-family="sans-serif" font-size="14" lengthAdjust="spacingAndGlyphs" textLength="89" x="321.5" y="132.752">ControlSesion</text><ellipse cx="369" cy="102.2188" fill="#FEFECE" rx="12" ry="12" style="stroke: #A80036; stroke-width: 2.0;"/><polygon fill="#A80036" points="365,90.2188,371,85.2188,369,90.2188,371,95.2188,365,90.2188" style="stroke: #A80036; stroke-width: 1.0;"/><text fill="#000000" font-family="sans-serif" font-size="14" lengthAdjust="spacingAndGlyphs" textLength="105" x="432.5" y="132.752">CuentaCorriente</text><ellipse cx="488" cy="102.2188" fill="#FEFECE" rx="12" ry="12" style="stroke: #A80036; stroke-width: 2.0;"/><line style="stroke: #A80036; stroke-width: 2.0;" x1="476" x2="500" y1="116.2188" y2="116.2188"/><rect fill="#FFFFFF" height="433.9219" style="stroke: #A80036; stroke-width: 1.0;" width="10" x="148" y="168.1797"/><rect fill="#FFFFFF" height="30.3516" style="stroke: #A80036; stroke-width: 1.0;" width="10" x="265" y="228.8828"/><rect fill="#FFFFFF" height="30.3516" style="stroke: #A80036; stroke-width: 1.0;" width="10" x="265" y="350.2891"/><rect fill="#FFFFFF" height="91.0547" style="stroke: #A80036; stroke-width: 1.0;" width="10" x="364" y="471.6953"/><rect fill="#FFFFFF" height="30.3516" style="stroke: #A80036; stroke-width: 1.0;" width="10" x="483" y="502.0469"/><polygon fill="#A80036" points="136,164.1797,146,168.1797,136,172.1797" style="stroke: #A80036; stroke-width: 1.0;"/><line style="stroke: #A80036; stroke-width: 1.0;" x1="33" x2="142" y1="168.1797" y2="168.1797"/><text fill="#000000" font-family="sans-serif" font-size="13" lengthAdjust="spacingAndGlyphs" textLength="90" x="40" y="163.3232">insertarTarjeta()</text><polygon fill="#A80036" points="136,194.5313,146,198.5313,136,202.5313" style="stroke: #A80036; stroke-width: 1.0;"/><line style="stroke: #A80036; stroke-width: 1.0;" x1="33" x2="142" y1="198.5313" y2="198.5313"/><text fill="#000000" font-family="sans-serif" font-size="13" lengthAdjust="spacingAndGlyphs" textLength="91" x="40" y="193.6748">ingresarPass(x)</text><polygon fill="#A80036" points="253,224.8828,263,228.8828,253,232.8828" style="stroke: #A80036; stroke-width: 1.0;"/><line style="stroke: #A80036; stroke-width: 1.0;" x1="158" x2="259" y1="228.8828" y2="228.8828"/><text fill="#000000" font-family="sans-serif" font-size="13" lengthAdjust="spacingAndGlyphs" textLength="88" x="165" y="224.0264">verificarPass(x)</text><polygon fill="#A80036" points="169,255.2344,159,259.2344,169,263.2344" style="stroke: #A80036; stroke-width: 1.0;"/><line style="stroke: #A80036; stroke-width: 1.0; stroke-dasharray: 2.0,2.0;" x1="163" x2="269" y1="259.2344" y2="259.2344"/><text fill="#000000" font-family="sans-serif" font-size="13" lengthAdjust="spacingAndGlyphs" textLength="70" x="175" y="254.3779">passInvalida</text><polygon fill="#A80036" points="44,285.5859,34,289.5859,44,293.5859" style="stroke: #A80036; stroke-width: 1.0;"/><line style="stroke: #A80036; stroke-width: 1.0; stroke-dasharray: 2.0,2.0;" x1="38" x2="147" y1="289.5859" y2="289.5859"/><text fill="#000000" font-family="sans-serif" font-size="13" lengthAdjust="spacingAndGlyphs" textLength="70" x="50" y="284.7295">passInvalida</text><polygon fill="#A80036" points="136,315.9375,146,319.9375,136,323.9375" style="stroke: #A80036; stroke-width: 1.0;"/><line style="stroke: #A80036; stroke-width: 1.0;" x1="33" x2="142" y1="319.9375" y2="319.9375"/><text fill="#000000" font-family="sans-serif" font-size="13" lengthAdjust="spacingAndGlyphs" textLength="91" x="40" y="315.0811">ingresarPass(x)</text><polygon fill="#A80036" points="253,346.2891,263,350.2891,253,354.2891" style="stroke: #A80036; stroke-width: 1.0;"/><line style="stroke: #A80036; stroke-width: 1.0;" x1="158" x2="259" y1="350.2891" y2="350.2891"/><text fill="#000000" font-family="sans-serif" font-size="13" lengthAdjust="spacingAndGlyphs" textLength="88" x="165" y="345.4326">verificarPass(x)</text><polygon fill="#A80036" points="169,376.6406,159,380.6406,169,384.6406" style="stroke: #A80036; stroke-width: 1.0;"/><line style="stroke: #A80036; stroke-width: 1.0; stroke-dasharray: 2.0,2.0;" x1="163" x2="269" y1="380.6406" y2="380.6406"/><text fill="#000000" font-family="sans-serif" font-size="13" lengthAdjust="spacingAndGlyphs" textLength="45" x="175" y="375.7842">passOk</text><polygon fill="#A80036" points="44,406.9922,34,410.9922,44,414.9922" style="stroke: #A80036; stroke-width: 1.0;"/><line style="stroke: #A80036; stroke-width: 1.0; stroke-dasharray: 2.0,2.0;" x1="38" x2="147" y1="410.9922" y2="410.9922"/><text fill="#000000" font-family="sans-serif" font-size="13" lengthAdjust="spacingAndGlyphs" textLength="45" x="50" y="406.1357">passOk</text><polygon fill="#A80036" points="136,437.3438,146,441.3438,136,445.3438" style="stroke: #A80036; stroke-width: 1.0;"/><line style="stroke: #A80036; stroke-width: 1.0;" x1="33" x2="142" y1="441.3438" y2="441.3438"/><text fill="#000000" font-family="sans-serif" font-size="13" lengthAdjust="spacingAndGlyphs" textLength="90" x="40" y="436.4873">consultaSaldo()</text><polygon fill="#A80036" points="352,467.6953,362,471.6953,352,475.6953" style="stroke: #A80036; stroke-width: 1.0;"/><line style="stroke: #A80036; stroke-width: 1.0;" x1="158" x2="358" y1="471.6953" y2="471.6953"/><text fill="#000000" font-family="sans-serif" font-size="13" lengthAdjust="spacingAndGlyphs" textLength="90" x="165" y="466.8389">consultaSaldo()</text><polygon fill="#A80036" points="471,498.0469,481,502.0469,471,506.0469" style="stroke: #A80036; stroke-width: 1.0;"/><line style="stroke: #A80036; stroke-width: 1.0;" x1="374" x2="477" y1="502.0469" y2="502.0469"/><text fill="#000000" font-family="sans-serif" font-size="13" lengthAdjust="spacingAndGlyphs" textLength="90" x="381" y="497.1904">consultaSaldo()</text><polygon fill="#A80036" points="385,528.3984,375,532.3984,385,536.3984" style="stroke: #A80036; stroke-width: 1.0;"/><line style="stroke: #A80036; stroke-width: 1.0; stroke-dasharray: 2.0,2.0;" x1="379" x2="487" y1="532.3984" y2="532.3984"/><text fill="#000000" font-family="sans-serif" font-size="13" lengthAdjust="spacingAndGlyphs" textLength="53" x="391" y="527.542">infoSaldo</text><polygon fill="#A80036" points="169,558.75,159,562.75,169,566.75" style="stroke: #A80036; stroke-width: 1.0;"/><line style="stroke: #A80036; stroke-width: 1.0; stroke-dasharray: 2.0,2.0;" x1="163" x2="368" y1="562.75" y2="562.75"/><text fill="#000000" font-family="sans-serif" font-size="13" lengthAdjust="spacingAndGlyphs" textLength="53" x="175" y="557.8936">infoSaldo</text><polygon fill="#A80036" points="44,589.1016,34,593.1016,44,597.1016" style="stroke: #A80036; stroke-width: 1.0;"/><line style="stroke: #A80036; stroke-width: 1.0; stroke-dasharray: 2.0,2.0;" x1="38" x2="147" y1="593.1016" y2="593.1016"/><text fill="#000000" font-family="sans-serif" font-size="13" lengthAdjust="spacingAndGlyphs" textLength="53" x="50" y="588.2451">infoSaldo</text><text fill="#888888" font-family="sans-serif" font-size="10" lengthAdjust="spacingAndGlyphs" textLength="37" x="511.5" y="13.3809">INF 236</text><!--MD5=[8bdc2d684ca57c588b3705cc2d922028]
@startuml
title Diagrama de Secuencia: Cajero
header INF 236
skinparam style strictuml

actor Cliente as Foo1
boundary Cajero as Foo2
control ControlPass as Foo3
control ControlSesion as Foo6
entity CuentaCorriente as Foo4

Foo1 -> Foo2 : insertarTarjeta()
activate Foo2 
Foo1 -> Foo2 : ingresarPass(x)
Foo2 -> Foo3 : verificarPass(x)
activate Foo3
Foo3 - -> Foo2 : passInvalida
deactivate Foo3
Foo2 - -> Foo1 : passInvalida
Foo1 -> Foo2 : ingresarPass(x)
Foo2 -> Foo3 : verificarPass(x)
activate Foo3
Foo3 - -> Foo2 : passOk
deactivate Foo3
Foo2 - -> Foo1 : passOk
Foo1 -> Foo2 : consultaSaldo()
Foo2 -> Foo6 : consultaSaldo()
activate Foo6
Foo6 -> Foo4 : consultaSaldo()
activate Foo4
Foo4 - -> Foo6 : infoSaldo
deactivate Foo4
Foo6 - -> Foo2 : infoSaldo
deactivate Foo6
Foo2 - -> Foo1 : infoSaldo


@enduml

PlantUML version 1.2020.10(Sun May 17 05:35:57 CLT 2020)
(GPL source distribution)
Java Runtime: Java(TM) SE Runtime Environment
JVM: Java HotSpot(TM) 64-Bit Server VM
Java Version: 1.8.0_121-b13
Operating System: Windows 10
Default Encoding: Cp1252
Language: es
Country: CL
--></g></svg>